<!-- filepath: c:\Users\kshre\OneDrive\Desktop\My Digital Products\Spotify clone\logo.svg -->
<svg width="125" height="40" viewBox="0 0 400 100" fill="none" xmlns="http://www.w3.org/2000/svg">
  <!-- Spotify Icon -->
  <circle cx="50" cy="50" r="45" fill="#1ED760"/>
  <path d="M77 69c-2-3.3-6.3-4.3-9.6-2.3-26.3 16-59.5 6.2-73.5-1.1-3.5-1.8-7.8-0.5-9.6 3-1.8 3.5-0.5 7.8 3 9.6 16.2 8.5 54.2 19.2 85.2 1.2 3.3-2 4.3-6.3 2.3-9.6zm12.1-25.2c-2.5-4-7.7-5.3-11.7-2.8-30.2 18.5-76.4 8.1-94.2-1.1-4.1-2.1-9.1-0.5-11.2 3.6-2.1 4.1-0.5 9.1 3.6 11.2 20.5 10.3 72.2 22.1 108.2 1.2 4-2.5 5.3-7.7 2.8-11.7zm0.7-27.2c-34.5-20.5-91.1-11.2-116.1 1.2-4.6 2.3-6.3 7.9-4 12.5 2.3 4.6 7.9 6.3 12.5 4 21.7-10.7 73.7-19.2 102.7-1.2 4.6 2.7 10.5 1.1 13.2-3.5 2.7-4.6 1.1-10.5-3.5-13.2z" fill="#191414" transform="translate(0,0) scale(0.6) translate(33,33)"/>
  <!-- Spotify Text -->
  <text x="110" y="68" font-family="Arial, Helvetica, sans-serif" font-size="56" fill="#191414" font-weight="bold" letter-spacing="2">Spotify</text>
</svg>